<svg width="24" height="24" viewBox="0 0 24 24" fill="none" xmlns="http://www.w3.org/2000/svg"><path style="mix-blend-mode:multiply" d="M0 0h24v24H0z"/><path d="M18.75 1.5a8.26 8.26 0 0 0-7.684 5.268A5.25 5.25 0 0 0 6.75 4.5H4.5v2.25A5.256 5.256 0 0 0 9.75 12h.75v6.787a7.44 7.44 0 0 0-4.553 2.16l1.06 1.06a6 6 0 0 1 9.232.91l1.246-.834A7.49 7.49 0 0 0 12 18.797V12h.75A8.26 8.26 0 0 0 21 3.75V1.5zm-9 9A3.754 3.754 0 0 1 6 6.75V6h.75a3.754 3.754 0 0 1 3.75 3.75v.75zm9.75-6.75a6.76 6.76 0 0 1-6.75 6.75H12v-.75A6.76 6.76 0 0 1 18.75 3h.75z" fill="#000"/></svg>