<svg width="24" height="24" viewBox="0 0 24 24" fill="none" xmlns="http://www.w3.org/2000/svg"><path style="mix-blend-mode:multiply" d="M0 0h24v24H0z"/><path d="M12 12H3v1.5h9zM9 8.25H1.5v1.5H9z" fill="#000"/><path d="m22.44 12.455-2.25-5.25a.75.75 0 0 0-.69-.455h-2.25v-1.5a.75.75 0 0 0-.75-.75h-12V6h11.25v9.417a3 3 0 0 0-1.393 1.833H9.643a3 3 0 1 0 0 1.5h4.714a2.985 2.985 0 0 0 5.786 0h1.607a.75.75 0 0 0 .75-.75v-5.25a.8.8 0 0 0-.06-.295M6.75 19.5a1.5 1.5 0 1 1 0-3 1.5 1.5 0 0 1 0 3m10.5-11.25h1.756L20.613 12H17.25zm0 11.25a1.5 1.5 0 1 1 0-3 1.5 1.5 0 0 1 0 3M21 17.25h-.857A2.996 2.996 0 0 0 17.25 15v-1.5H21z" fill="#000"/></svg>